<svg xmlns="http://www.w3.org/2000/svg" xmlns:xlink="http://www.w3.org/1999/xlink" width="850" height="780" viewBox="0 0 850 780">
    <defs>
        <path id="kqxps3x5ra" d="M0 0H850V780H0z"/>
        <path id="j4krpjqfre" d="M0 0L52.07 0 52.07 59.318 0 59.318z"/>
        <path id="mq5i6bsasg" d="M0.016 0.979L86.543 0.979 86.543 63.36 0.016 63.36z"/>
        <path id="cquk3vux9k" d="M0.275 0.442L33.176 0.442 33.176 16.918 0.275 16.918z"/>
        <linearGradient id="li9o5xtxji" x1="80.694%" x2="47.312%" y1="7.571%" y2="75.114%">
            <stop offset="0%" stop-color="#D3E1E7"/>
            <stop offset="100%" stop-color="#A7BECB"/>
        </linearGradient>
        <linearGradient id="7vz2ywsjbj" x1="51.678%" x2="48.602%" y1="0%" y2="98.187%">
            <stop offset="0%" stop-color="#A8BFCC"/>
            <stop offset="100%" stop-color="#8C9DAD"/>
        </linearGradient>
        <linearGradient id="xg2d2wtjtn" x1="1.637%" x2="100%" y1="43.568%" y2="57.003%">
            <stop offset="0%" stop-color="#00EFE6"/>
            <stop offset="100%" stop-color="#1097DF"/>
        </linearGradient>
        <filter id="6pqt1zfi5c">
            <feColorMatrix in="SourceGraphic" values="0 0 0 0 0.078431 0 0 0 0 0.113725 0 0 0 0 0.227451 0 0 0 1.000000 0"/>
        </filter>
        <filter id="cw46yig12d">
            <feColorMatrix in="SourceGraphic" values="0 0 0 0 0.546037 0 0 0 0 0.703843 0 0 0 0 1.000000 0 0 0 1.000000 0"/>
        </filter>
        <filter id="e828oc8m1m">
            <feColorMatrix in="SourceGraphic" values="0 0 0 0 0.976471 0 0 0 0 0.745098 0 0 0 0 0.054902 0 0 0 1.000000 0"/>
        </filter>
    </defs>
    <g fill="none" fill-rule="evenodd">
        <g>
            <g transform="translate(-590.000000, 0.000000) translate(590.000000, 0.000000)">
                <mask id="t4i1j0kgab" fill="#fff">
                    <use xlink:href="#kqxps3x5ra"/>
                </mask>
                <use fill="#2A33FF" xlink:href="#kqxps3x5ra"/>
                <path fill="#2155F4" fill-rule="nonzero" d="M651.33 676.076c90.045 29.256 193.978 90.943 218.43 177.502 24.453 86.56-30.576 197.99-108.945 251.985-78.366 53.317-179.437 49.87-270.54 93.103-91.104 43.233-172.24 133.147-246.47 134.955-74.228 1.809-141.546-85.166-195.376-181.03-53.826-96.54-94.8-202.643-101.126-325.894-5.682-123.931 23.93-265.69 106.009-297.353 82.723-32.344 219.194 45.402 325.187 82.69 105.994 37.287 182.79 34.109 272.831 64.042z" mask="url(#t4i1j0kgab)" transform="translate(411.125649, 927.649158) rotate(-6.000000) translate(-411.125649, -927.649158)"/>
                <g fill="#00DBC9" fill-rule="nonzero" mask="url(#t4i1j0kgab)" opacity=".202">
                    <path d="M405.932 86.001c52.017 16.244 112.15 50.208 126.538 97.462 14.387 47.254-16.97 107.798-61.978 136.963-45.007 28.796-103.296 26.58-155.682 49.838-52.385 23.258-98.869 71.99-141.663 72.728-42.794.738-81.899-46.885-113.256-99.308C28.533 290.892 4.554 232.932.496 165.743-3.194 98.184 13.408 21.027 60.629 4.045c47.59-17.351 126.537 25.473 187.777 46.147 61.24 20.673 105.51 19.197 157.526 35.81z" transform="translate(482.000000, -222.000000) translate(268.000000, 221.500000) scale(-1, 1) translate(-268.000000, -221.500000)"/>
                </g>
                <g mask="url(#t4i1j0kgab)">
                    <g>
                        <g>
                            <g fill-rule="nonzero">
                                <path fill="#FFF" stroke="#161616" stroke-width="2.5" d="M167.023 108.3c-54.218 3.908-108.436 7.794-162.633 11.701C2.92 80.756 1.45 41.511 0 2.267L163.368.065c1.211 36.071 2.422 72.143 3.655 108.236z" opacity=".9" transform="translate(57.000000, 469.000000) translate(27.540000, 25.920000)"/>
                                <path fill="#161616" d="M46.065 21.37h31.553c.411 0 .411-.647 0-.647H46.065c-.411 0-.411.648 0 .648zM6.575 87.362l1.167 27.091c.022.41.67.41.65 0L7.222 87.362c-.021-.41-.67-.41-.648 0zM54.218 82.095h2.812c.41 0 .41-.648 0-.648h-2.812c-.41 0-.41.648 0 .648zM59.473 82.095h7.18c.411 0 .411-.648 0-.648h-7.18c-.41 0-.41.648 0 .648zM58.09 86.628H68.6c.41 0 .41-.648 0-.648H58.09c-.433 0-.433.648 0 .648zM101.84 109.013h10.857c.41 0 .41-.647 0-.647H101.84c-.41 0-.41.647 0 .647zM111.29 106.38h10.685c.41 0 .41-.648 0-.648H111.29c-.411 0-.411.648 0 .648zM150.695 49.067h4.022c.411 0 .411-.648 0-.648h-4.022c-.433 0-.433.648 0 .648zM145.44 75.446h5.947c.41 0 .41-.648 0-.648h-5.948c-.432 0-.432.648 0 .648zM141.59 77.194h6.466c.411 0 .411-.647 0-.647h-6.466c-.433 0-.433.647 0 .647zM144.726 78.943h12.781c.411 0 .411-.648 0-.648h-12.781c-.411 0-.411.648 0 .648zM152.793 76.849h3.85c.41 0 .41-.648 0-.648h-3.85c-.433 0-.433.648 0 .648zM4.65 14.852l1.427 49.174c.13 4.663.26 9.304.411 13.967.022.41.67.41.649 0L5.709 28.818c-.13-4.662-.26-9.304-.41-13.966 0-.41-.65-.41-.65 0zM161.854 68.409l.973 32.488c.022.41.67.41.65 0l-.974-32.488c0-.41-.649-.41-.649 0z" transform="translate(57.000000, 469.000000) translate(27.540000, 25.920000)"/>
                            </g>
                            <g>
                                <g filter="url(#6pqt1zfi5c)" transform="translate(57.000000, 469.000000) translate(27.540000, 25.920000) translate(81.772341, 53.241182) rotate(-2.000000) translate(-81.772341, -53.241182) translate(30.772341, 43.741182)">
                                    <g fill="#30557F" fill-rule="nonzero">
                                        <path d="M2.32.248C3.345.254 4.025.3 4.363.384c.366.092.702.256 1.008.494.306.238.547.535.72.891.174.357.26.76.26 1.208 0 .448-.084.85-.253 1.207-.169.356-.411.651-.727.884-.315.234-.702.398-1.159.494-.446.094-1.228.142-2.345.144H1.18v4.582H0V.247zm.506 1.151H1.18v3.169h1.563c.924.018 1.553-.128 1.886-.44.334-.31.501-.699.501-1.165 0-1.043-.768-1.564-2.304-1.564zM8.628 10.288V7.64c.003-1.136.06-1.925.171-2.367.115-.453.286-.818.515-1.097.228-.28.484-.419.768-.419.146 0 .297.042.453.124l.59-.96c-.376-.201-.712-.302-1.009-.302-.297 0-.562.082-.795.247-.234.164-.464.416-.693.754v-.809H7.476v7.476h1.152zM14.869 2.62c1.093 0 2.01.443 2.75 1.33V2.812h1.111v7.476h-1.111V9.19l-.176.185c-.772.773-1.651 1.16-2.636 1.16-1.06 0-1.968-.391-2.723-1.173-.754-.782-1.131-1.715-1.131-2.798 0-1.084.38-2.012 1.138-2.785.76-.773 1.685-1.16 2.778-1.16zm.013 1.097c-.781 0-1.442.286-1.982.858-.54.571-.809 1.246-.809 2.023 0 .777.274 1.452.823 2.023.549.572 1.207.857 1.975.857.76 0 1.413-.274 1.962-.823.549-.548.823-1.232.823-2.05 0-.819-.27-1.505-.81-2.058-.539-.553-1.2-.83-1.982-.83z" transform="translate(24.798674, 3.538080)"/>
                                        <g>
                                            <path d="M.871 1.742c.242 0 .448-.085.617-.254.17-.169.254-.375.254-.617S1.657.423 1.488.254C1.32.084 1.111 0 .864 0 .626 0 .423.087.254.26.084.435 0 .639 0 .872c0 .233.085.437.254.61.169.174.375.261.617.261zM1.44 10.288L1.44 2.812.302 2.812.302 10.288z" transform="translate(24.798674, 3.538080) translate(20.211469, 0.000000)"/>
                                        </g>
                                        <path d="M25.23 10.535c.649 0 1.195-.22 1.639-.659.443-.439.665-.978.665-1.618 0-.503-.149-.929-.446-1.276-.297-.348-.72-.665-1.269-.953-.548-.288-.93-.53-1.145-.727-.215-.197-.322-.426-.322-.686 0-.26.096-.48.288-.659.192-.178.43-.267.713-.267.448 0 .942.251 1.482.754l.727-.754c-.732-.713-1.425-1.07-2.079-1.07-.653 0-1.18.192-1.577.576-.398.384-.597.848-.597 1.392 0 .544.14.983.419 1.317.279.334.69.638 1.234.912.544.275.928.515 1.152.72.224.206.336.462.336.769 0 .306-.123.573-.37.802-.247.229-.544.343-.891.343-.513 0-1.016-.288-1.51-.864l-.713.795c.604.768 1.358 1.153 2.264 1.153zM32.214 2.62c1.088 0 1.998.368 2.73 1.104.73.736 1.11 1.744 1.138 3.025h-6.557l.02.242c.084.711.353 1.291.81 1.74.508.498 1.113.747 1.818.747 1.198 0 2.112-.59 2.743-1.77l.96.495-.146.257c-.397.666-.856 1.168-1.376 1.505-.586.38-1.285.57-2.1.57-1.124 0-2.052-.387-2.784-1.16-.731-.772-1.097-1.703-1.097-2.79 0-1.09.368-2.022 1.104-2.8.736-.776 1.649-1.165 2.737-1.165zm0 1.097c-1.28 0-2.131.677-2.552 2.03h5.158c-.137-.64-.448-1.138-.933-1.495-.484-.356-1.042-.535-1.673-.535zM38.54 0v3.91l.168-.178c.743-.741 1.62-1.112 2.63-1.112 1.088 0 2.005.386 2.75 1.159.745.773 1.118 1.703 1.118 2.791 0 1.089-.38 2.021-1.139 2.799-.759.777-1.675 1.166-2.75 1.166-1.074 0-2-.467-2.778-1.4v1.153h-1.11V0h1.11zm2.743 3.662c-.796 0-1.461.27-1.996.81-.535.54-.802 1.218-.802 2.037 0 .818.27 1.51.809 2.078.54.567 1.198.85 1.975.85.777 0 1.438-.288 1.982-.864.544-.576.816-1.25.816-2.023 0-.773-.265-1.447-.795-2.023-.53-.577-1.194-.865-1.99-.865zM50.131 2.62c1.08 0 1.996.389 2.75 1.166.755.777 1.132 1.71 1.132 2.798s-.373 2.019-1.118 2.791c-.745.773-1.666 1.16-2.764 1.16-1.097 0-2.02-.387-2.77-1.16-.75-.772-1.125-1.703-1.125-2.79 0-1.09.377-2.022 1.131-2.8.755-.776 1.676-1.165 2.764-1.165zm-.007 1.111c-.745 0-1.387.286-1.927.857-.54.572-.81 1.25-.81 2.037 0 .787.261 1.454.783 2.003.52.549 1.175.823 1.961.823.76 0 1.406-.277 1.941-.83.535-.553.803-1.22.803-2.003 0-.781-.272-1.458-.817-2.03-.544-.571-1.188-.857-1.934-.857zM59.15 2.62c1.093 0 2.01.443 2.75 1.33V2.812h1.111v7.476h-1.11V9.19l-.177.185c-.772.773-1.65 1.16-2.636 1.16-1.06 0-1.968-.391-2.722-1.173-.755-.782-1.132-1.715-1.132-2.798 0-1.084.38-2.012 1.138-2.785.76-.773 1.685-1.16 2.778-1.16zm-.122 1.097c-.782 0-1.443.286-1.982.858-.54.571-.81 1.246-.81 2.023 0 .777.275 1.452.823 2.023.549.572 1.207.857 1.976.857.759 0 1.412-.274 1.961-.823.549-.548.823-1.232.823-2.05 0-.819-.27-1.505-.81-2.058-.539-.553-1.2-.83-1.981-.83zM65.59 10.288V7.723c0-1.18.057-1.996.172-2.449.114-.453.285-.818.514-1.097.229-.28.485-.419.768-.419.146 0 .297.042.453.124l.59-.96c-.375-.201-.711-.302-1.009-.302-.297 0-.562.082-.795.247-.233.164-.464.416-.693.754v-.809h-1.152v7.476h1.152zM76.114 0v10.288h-1.11V9.19l-.177.185c-.773.773-1.653 1.16-2.643 1.16-1.065 0-1.973-.39-2.722-1.166-.75-.778-1.125-1.71-1.125-2.799 0-1.088.38-2.018 1.138-2.791.76-.773 1.685-1.16 2.778-1.16s2.01.444 2.75 1.331V0h1.111zM72.28 3.717c-.8 0-1.467.286-2.002.858-.535.571-.803 1.243-.803 2.016 0 .773.275 1.447.823 2.023.549.576 1.207.864 1.975.864.723 0 1.368-.27 1.935-.809.567-.54.85-1.223.85-2.05 0-.828-.263-1.519-.789-2.072-.526-.553-1.189-.83-1.989-.83z" transform="translate(24.798674, 3.538080)"/>
                                    </g>
                                </g>
                                <path fill="#46FABC" d="M19.369 9.785L12.54 4.73c-.12-.09-.286-.09-.406 0L5.387 9.789c-.15.113-.18.326-.068.477.039.052.092.091.153.114 2.263.85 4.552 1.276 6.865 1.276 2.313 0 4.629-.426 6.947-1.277.176-.065.267-.26.202-.437-.023-.062-.064-.116-.117-.156z" opacity=".8" style="mix-blend-mode:multiply" transform="translate(57.000000, 469.000000) translate(27.540000, 25.920000) translate(81.772341, 53.241182) rotate(-2.000000) translate(-81.772341, -53.241182) translate(30.772341, 43.741182) translate(12.383278, 8.116898) rotate(-129.000000) translate(-12.383278, -8.116898)"/>
                                <path fill="#00DBC9" d="M16.92 11.282l-6.83-5.055c-.12-.09-.285-.09-.406 0l-6.746 5.058c-.15.113-.181.326-.068.477.039.051.092.091.152.114 2.264.85 4.552 1.276 6.865 1.276 2.314 0 4.63-.426 6.947-1.277.177-.065.267-.26.202-.437-.023-.062-.063-.116-.117-.156z" opacity=".8" style="mix-blend-mode:multiply" transform="translate(57.000000, 469.000000) translate(27.540000, 25.920000) translate(81.772341, 53.241182) rotate(-2.000000) translate(-81.772341, -53.241182) translate(30.772341, 43.741182) translate(9.933839, 9.613778) rotate(-129.000000) translate(-9.933839, -9.613778)"/>
                                <path fill="#2A33FF" d="M14.47 12.507L7.64 7.45c-.12-.09-.286-.089-.406.001L.488 12.51c-.15.113-.18.326-.068.476.04.052.092.092.153.115 2.264.85 4.552 1.276 6.865 1.276 2.313 0 4.629-.426 6.947-1.277.176-.065.267-.26.202-.437-.023-.062-.064-.117-.117-.156z" opacity=".8" style="mix-blend-mode:multiply" transform="translate(57.000000, 469.000000) translate(27.540000, 25.920000) translate(81.772341, 53.241182) rotate(-2.000000) translate(-81.772341, -53.241182) translate(30.772341, 43.741182) translate(7.484399, 10.838498) rotate(-129.000000) translate(-7.484399, -10.838498)"/>
                            </g>
                        </g>
                        <g stroke="#00DBC9" stroke-linecap="round" stroke-width="2.268">
                            <path d="M9.72 27.54c.703-9.18 6.379-14.741 17.028-16.684" opacity=".8" transform="translate(57.000000, 469.000000)"/>
                            <path d="M0 27.54C2.574 11.881 11.754 2.701 27.54 0" transform="translate(57.000000, 469.000000)"/>
                            <path d="M19.486 25.62c1.354-3.616 3.499-5.677 6.434-6.18" opacity=".6" transform="translate(57.000000, 469.000000)"/>
                        </g>
                    </g>
                </g>
                <g filter="url(#cw46yig12d)">
                    <g mask="url(#t4i1j0kgab)">
                        <g fill="#E8E8E8" fill-rule="nonzero">
                            <path d="M93.748 43.863c.06.923.09 1.845.15 2.738 0 .179.119.417.327.417 25.075 3.452 50.359.535 75.523.595 7.117 0 14.205.268 21.293.952.179.03.387-.149.417-.327.238-1.22.506-2.44.744-3.66.12-.566-.744-.804-.863-.239-.239 1.22-.507 2.44-.745 3.66.15-.118.298-.208.417-.327-24.926-2.44-49.942.625-74.927.09-7.237-.15-14.473-.625-21.65-1.607.119.149.208.297.327.416-.06-.922-.09-1.845-.149-2.737 0-.536-.893-.536-.864.03z" transform="translate(606.719986, 449.480000)"/>
                            <path d="M94.493 44.31h97.054c.566 0 .566-.893 0-.893H94.493c-.566 0-.566.893 0 .893z" transform="translate(606.719986, 449.480000)"/>
                            <path d="M99.913 43.596c.745-10.684 1.37-21.397 2.293-32.05.12-1.399.268-2.767.506-4.136.09-.506.12-1.548.417-1.964.387-.536 1.221-.536 1.817-.625 1.37-.238 3.663-1.071 4.616.327.268.417.327 1.28.417 1.786.178.892.298 1.785.387 2.678.476 5.237-.209 10.564-.596 15.801l-1.34 18.212c-.03.566.864.566.894 0 .655-8.69 1.37-17.349 1.906-26.038.238-3.988.357-8.064-.626-11.992-.268-1.102-.685-2.024-1.936-2.143-1.905-.149-4.11.506-5.956.893-.148.03-.268.178-.297.297-1.579 6.16-1.52 12.796-1.966 19.105-.476 6.606-.923 13.242-1.4 19.849-.06.565.834.565.864 0z" transform="translate(606.719986, 449.480000)"/>
                            <path d="M110.991 16.724c3.634 9.136 7.475 18.182 11.496 27.14.238.535 1.012.059.774-.447-3.99-8.898-7.803-17.885-11.406-26.931-.208-.536-1.072-.298-.864.238zM111.766 11.933c.744-2.113 3.037-3.273 5.181-2.678.566.149.804-.714.239-.863-2.621-.744-5.39.744-6.284 3.303-.179.565.685.774.864.238z" transform="translate(606.719986, 449.480000)"/>
                            <path d="M116.947 9.433c5.897 11.427 11.764 22.884 17.66 34.311.268.506 1.042.06.774-.446-5.896-11.427-11.763-22.884-17.66-34.311-.267-.536-1.042-.09-.774.446z" transform="translate(606.719986, 449.480000)"/>
                            <path d="M132.463 1.756c.953 13.837 1.906 27.675 2.83 41.512.029.566.922.566.893 0-.953-13.837-1.906-27.675-2.83-41.512-.03-.566-.923-.566-.893 0z" transform="translate(606.719986, 449.480000)"/>
                            <path d="M133.237 2.232c1.52-1.369 3.574-1.369 5.48-1.042.774.12 1.608.268 2.352.536 1.37.506 1.162 1.756 1.221 2.976.18 4.255.328 8.51.507 12.766.327 8.6.685 17.23 1.012 25.83.03.565.923.565.894 0-.417-10.296-.804-20.593-1.221-30.86-.09-2.558-.209-5.147-.298-7.706-.06-1.31.119-2.917-1.25-3.631-1.43-.744-3.634-1.012-5.242-.982-1.549.03-2.919.446-4.05 1.488-.447.357.178 1.012.595.625zM117.662 8.927c2.83.179 5.599 1.012 8.309 1.786 2.501.714 4.943 1.607 7.058 3.154.476.328.923-.446.447-.773-2.204-1.578-4.706-2.5-7.297-3.244-2.799-.804-5.628-1.607-8.547-1.815-.565-.06-.565.833.03.892z" transform="translate(606.719986, 449.480000)"/>
                            <path d="M143.333 7.35c1.31-.327 2.77-.654 4.14-.387 2.024.417 2.441 2.202 2.53 4.018.15 3.66.21 7.29.298 10.95.18 7.202.268 14.404.298 21.605 0 .565.894.565.894 0-.03-8.6-.15-17.17-.388-25.74l-.178-6.22c-.06-1.369-.03-2.887-.864-4.047-1.548-2.173-4.735-1.637-6.939-1.072-.595.179-.357 1.042.209.893z" transform="translate(606.719986, 449.480000)"/>
                            <path d="M149.855 2.648v8.005c0 .566.893.566.893 0V2.648c0-.565-.893-.565-.893 0z" transform="translate(606.719986, 449.480000)"/>
                            <path d="M151.165 2.976c.238.09.506.178.745.268.03.208.06.416.089.654.06.476.06.982.119 1.488.06.774.12 1.577.179 2.351.119 1.667.208 3.363.297 5.03.209 3.451.358 6.903.477 10.355.268 6.815.357 13.63.357 20.444 0 .565.894.565.894 0 0-8.481-.179-16.992-.566-25.473-.209-4.136-.447-8.273-.745-12.41-.06-1.011.12-2.856-.804-3.57-.625-.476-1.489-.298-1.816.416-.209.536.536.982.774.447zM107.269 48.238c.923 1.547 1.816 3.868 3.305 4.97 1.46 1.1 3.246.118 4.855.684.536.178.774-.685.238-.863-1.43-.506-3.097.297-4.378-.506-1.46-.893-2.382-3.303-3.246-4.761-.298-.476-1.072-.03-.774.476z" transform="translate(606.719986, 449.480000)"/>
                            <path d="M116.62 48.625c-.12 1.547-.596 2.946-1.37 4.255-.298.506.476.952.774.446.894-1.458 1.37-3.035 1.49-4.701.059-.566-.835-.566-.894 0z" transform="translate(606.719986, 449.480000)"/>
                            <path d="M114.088 49.369c.269 1.368.537 2.737.834 4.106.12.566.983.328.864-.238-.268-1.369-.536-2.738-.834-4.106-.119-.566-.983-.328-.864.238z" transform="translate(606.719986, 449.480000)"/>
                            <path d="M115.16 49.339c.06 0 .12.03.18.06.089.178.089.356.059.535-.03.208-.12.417-.179.625-.119.417-.149.803-.03 1.22.18.565.953.327.864-.238-.149-.804-.03-1.607.298-2.351-.298-.03-.596-.09-.864-.119-.09.923-.149 1.875-.238 2.797-.06.566.834.566.893 0 .09-.922.15-1.874.239-2.797.06-.536-.715-.536-.864-.119-.387.922-.447 1.875-.298 2.827.298-.09.566-.149.864-.238-.268-.893.774-1.994-.12-2.797-.535-.476-1.399-.298-1.607.387-.239.535.625.773.804.208zM161.826 42.822c-.268-1.101-.387-2.173-.297-3.303-.15.148-.298.297-.447.446 5.271-.268 10.542-.595 15.813-.714 2.65-.06 5.301-.06 7.952 0 .595 0 1.19.03 1.757.03.595.03 1.816-.179 2.352.089 1.192.565.685 2.857.685 3.898 0 .566.894.566.894 0 0-1.398.714-4.374-1.192-4.761-1.31-.268-2.858-.12-4.199-.149-1.667-.03-3.335-.06-5.003-.03-6.343.03-12.686.417-19.06.744-.237 0-.446.209-.446.447-.06 1.22.03 2.38.358 3.54.089.566.953.328.833-.237z" transform="translate(606.719986, 449.480000)"/>
                            <path d="M165.132 33.865c.357 1.636.625 3.273.745 4.94.03.565.923.565.893 0-.12-1.756-.387-3.482-.774-5.178-.12-.536-.983-.298-.864.238z" transform="translate(606.719986, 449.480000)"/>
                            <path d="M165.728 34.43c3.603-.298 7.206-.625 10.81-.476 3.395.149 6.82 1.25 10.215.893l-.447-.447c-.12 1.577.06 3.065.566 4.583.178.536 1.042.298.863-.238-.476-1.428-.655-2.827-.536-4.345.03-.238-.208-.476-.446-.446-3.395.327-6.82-.774-10.215-.893-3.604-.149-7.237.179-10.81.476-.566.03-.566.923 0 .893zM135.411 126.77v3.719c0 .565.894.565.894 0v-3.72c0-.565-.894-.565-.894 0z" transform="translate(606.719986, 449.480000)"/>
                            <path d="M135.858 126.472h69.507c.566 0 .566-.893 0-.893h-69.507c-.596 0-.596.893 0 .893zM136.573 130.578h68.405c.566 0 .566-.892 0-.892h-68.405c-.566 0-.566.892 0 .892z" transform="translate(606.719986, 449.480000)"/>
                            <path d="M204.919 126.77v2.588c0 .566.893.566.893 0v-2.589c0-.565-.893-.565-.893 0zM142.29 116.74c.775 3.066 1.49 6.16 2.085 9.256.12.565.983.327.864-.239-.596-3.094-1.28-6.19-2.085-9.254-.149-.566-1.012-.328-.864.238zM157.776 116.473c-.714 3.065-1.31 6.13-1.757 9.225-.09.565.775.803.864.238.447-3.095 1.042-6.19 1.757-9.225.119-.565-.745-.803-.864-.238z" transform="translate(606.719986, 449.480000)"/>
                            <path d="M139.848 115.074c.06 1.548 2.383 1.429 3.515 1.488 2.56.12 5.152-.268 7.713-.416 1.28-.09 2.56-.12 3.841 0 1.043.089 2.174.446 3.187.238 1.132-.238 1.846-1.31 1.191-2.351-.298-.476-1.072-.03-.774.446.834 1.399-1.996.952-2.264.923-.625-.09-1.28-.15-1.905-.179-1.46-.09-2.949 0-4.408.12-.953.059-9.172 1.04-9.202-.269 0-.595-.894-.595-.894 0z" transform="translate(606.719986, 449.480000)"/>
                            <path d="M140.89 114.955c-.535-1.666 4.08-1.488 4.855-1.517l4.14-.179c.744-.03 8.487-.238 8.278.327-.178.536.685.774.864.238.893-2.648-8.785-1.487-10.036-1.428-2.323.09-4.914-.119-7.177.327-1.191.239-2.204 1.131-1.787 2.44.179.566 1.042.328.864-.208z" transform="translate(606.719986, 449.480000)"/>
                            <path d="M144.852 112.485c-1.37-.625-2.591-1.517-3.544-2.648-.387-.476-3.127-4.434-1.52-4.672.269-.03.418-.446.269-.655-.864-1.25-1.221-2.857-1.668-4.285-.506-1.547-.982-3.095-1.489-4.612-.09-.328-.238-.625-.298-.953-.148-.625-.238-.625.507-.684.804-.06 1.22.565 1.757 1.1 1.012 1.013 1.906 2.114 2.71 3.274 3.008 4.345 4.675 9.463 5.926 14.552.149.565 1.013.327.864-.238-1.608-6.487-3.961-13.153-8.726-18.063-.655-.685-1.906-2.262-3.008-2.083-.834.149-1.072 1.041-1.012 1.785.119 1.667 1.012 3.482 1.548 5.089.596 1.845.983 3.987 2.115 5.594.089-.208.178-.446.268-.654-1.966.297-.834 3.035-.298 4.106 1.132 2.173 2.948 3.84 5.152 4.88.506.18.953-.595.447-.833z" transform="translate(606.719986, 449.480000)"/>
                            <path d="M145.864 104.332c-.09-3.78-.179-7.708 1.102-11.308.625-1.756 1.578-3.333 2.68-4.821.268-.387.566-1.012.983-1.25.298-.476.744-.536 1.31-.149.715-.178 1.072 0 1.072.536.358.803.239 2.172.239 3.005 0 1.994-.477 3.84-.953 5.744-.179.654-.328 1.339-.268 1.993.06.774.476 1.37.685 2.084.595 2.023-.447 4.106-1.162 5.951-.715 1.934-1.46 3.869-2.174 5.833-.208.535.655.773.864.238.953-2.56 1.965-5.089 2.859-7.678.625-1.815.923-3.392.208-5.178-.953-2.41.566-5.118.775-7.588.119-1.607.387-4.345-.656-5.773-2.263-3.125-5.866 3.541-6.581 5.03-2.025 4.165-1.995 8.837-1.876 13.36.03.566.923.566.893-.03zM138.36 97.011c2.948 4.137 4.705 9.106 6.76 13.719.238.535 1.012.06.774-.447-2.025-4.642-3.812-9.582-6.76-13.718-.328-.476-1.102-.03-.775.446z" transform="translate(606.719986, 449.480000)"/>
                            <path d="M146.579 94.898c.119 1.578.655 2.976 1.638 4.196.357.447.983-.178.625-.625-.804-1.041-1.28-2.261-1.37-3.57-.03-.566-.923-.566-.893 0zM150.629 94.69c.715-1.071 1.46-2.143 2.174-3.214.328-.476-.447-.922-.774-.446-.715 1.071-1.46 2.142-2.174 3.214-.298.476.476.922.774.446zM159.504 94.095c-.745 1.19-1.817 2.113-2.8 3.065-1.072 1.012-2.144 2.053-3.216 3.065-.417.387.208 1.042.625.625 2.055-1.964 4.646-3.869 6.165-6.309.298-.476-.477-.922-.774-.446z" transform="translate(606.719986, 449.480000)"/>
                            <path d="M159.116 95.285c.06 1.577 2.68 4.494.656 5.446-.268.149-.268.506-.09.714.685.833.238 2.083.15 3.065-.09 1.101 0 2.202-.299 3.274-.536 2.053-2.442 3.273-4.14 4.344-.476.298-.029 1.072.448.774 2.054-1.31 4.169-2.797 4.645-5.356.239-1.37.239-2.798.358-4.167.119-.982.089-1.755-.566-2.529l-.09.714c2.83-1.339-.148-4.374-.208-6.22 0-.624-.893-.624-.864-.059z" transform="translate(606.719986, 449.480000)"/>
                            <path d="M157.687 99.66c-2.055 3.303-3.812 6.755-5.271 10.385-.209.536.655.774.863.238 1.43-3.54 3.157-6.933 5.182-10.177.298-.506-.476-.952-.774-.446zM143.869 122.841c1.191 1.607 2.829 2.708 4.794 3.125.566.119.805-.744.239-.863-1.728-.357-3.217-1.28-4.259-2.708-.327-.447-1.102 0-.774.446zM143.363 119.18c3.067 2.352 6.313 5.714 10.244 6.518.566.119.804-.744.238-.863-3.812-.774-7.028-4.136-10.036-6.428-.446-.357-.893.417-.446.774zM145.715 116.92c1.847 1.517 3.633 3.064 5.51 4.523.804.624 1.638 1.22 2.62 1.606.923.387 1.906.566 2.74 1.161.477.327.923-.446.447-.774-.655-.446-1.31-.654-2.025-.922-1.221-.417-2.204-.982-3.217-1.786-1.846-1.428-3.633-2.946-5.42-4.434-.476-.357-1.101.268-.655.625zM150.6 116.503c1.726 1.785 3.811 3.095 6.194 3.868.536.179.774-.684.238-.863-2.234-.744-4.17-1.964-5.807-3.66-.388-.387-1.043.238-.626.655zM172.518 125.162c-.18-.476-.447-1.1-.417-1.607.119-1.309 1.012-1.428 1.876-1.577 1.25-.238 2.56-.268 3.841-.268 2.174-.03 4.378.15 6.552.238 2.174.06 4.318-.06 6.492-.238.894-.089 2.472-.446 3.336-.148.893.327 1.131.773 1.161 1.607.03.654.03 1.309.06 1.993.03.566.923.566.893 0-.03-1.011.268-2.797-.238-3.75-.477-.832-1.579-.743-2.412-.743-3.395 0-6.701.506-10.126.357-3.156-.12-6.343-.387-9.47.09-2.561.386-3.216 1.963-2.353 4.344.12.476.983.238.805-.298z" transform="translate(606.719986, 449.480000)"/>
                            <path d="M178.831 120.371c.238-.535.447-1.071.685-1.607.268-.03.536-.06.804-.119.357-.03.685 0 1.042-.03.775 0 1.52-.03 2.293-.03 1.638-.029 3.246-.029 4.884-.059 1.52-.03 3.068-.03 4.587-.06.387 0 .774 0 1.161-.029.476 0 .625-.119.774.238.179.446-.149 1.696-.208 2.172-.06.566.834.566.893 0 .06-.714.506-2.202.15-2.856-.299-.536-.745-.447-1.341-.447-2.859 0-5.748.09-8.607.12-1.34.029-2.68.029-4.02.059-1.012 0-2.263-.12-3.186.357-1.072.565-1.579 2.023-.536 2.886.446.387 1.072-.238.625-.595z" transform="translate(606.719986, 449.480000)"/>
                            <path d="M184.966 116.74c-.775-1.04 2.471-.922 2.68-.951.715-.06 3.157-.506 2.68 1.1-.178.566.685.774.864.239.208-.715-.03-1.37-.596-1.845-.983-.804-2.204-.417-3.365-.357-.923.03-2.025-.268-2.77.446-.536.476-.684 1.22-.268 1.815.358.447 1.132 0 .775-.446zM139.402 131.233c1.131 1.547 2.472 2.827 4.05 3.898.476.328.923-.446.447-.773-1.43-.982-2.71-2.173-3.723-3.601-.357-.447-1.132 0-.774.476z" transform="translate(606.719986, 449.480000)"/>
                            <path d="M143.333 134.834h2.948c.566 0 1.49.148 1.995-.12.387-.208.507-.684.685-1.04.477-.953 1.043-1.846 1.698-2.709.357-.446-.268-1.071-.626-.625-.327.387-.625.804-.923 1.22-.357.566-.595 1.37-1.012 1.875-.834.982-3.544.536-4.765.506-.566 0-.566.893 0 .893z" transform="translate(606.719986, 449.480000)"/>
                            <path d="M146.638 131.173c.239.893.477 1.816.745 2.708.149.566 1.012.328.864-.238-.239-.892-.477-1.815-.745-2.708-.149-.565-1.012-.327-.864.238zM182.94 131.025c.477.982.983 1.934 1.609 2.827.327.476.744 1.22 1.31 1.488.596.297 1.43.06 2.025 0 1.072-.12 2.144-.209 3.216-.328.566-.06.566-.952 0-.893-.714.06-1.429.15-2.144.209-.625.06-1.548.327-2.144.208-1.548-.297-2.501-2.738-3.097-3.987-.268-.506-1.042-.06-.774.476z" transform="translate(606.719986, 449.480000)"/>
                            <path d="M191.13 130.28c-.357 1.28-.536 2.59-.506 3.899.03.565.923.565.893 0-.03-1.25.12-2.47.447-3.66.179-.536-.685-.774-.834-.238z" transform="translate(606.719986, 449.480000)"/>
                            <path d="M191.517 134.625c1.192-1.13 2.323-2.32 3.425-3.54.387-.417-.238-1.072-.625-.626-1.102 1.22-2.234 2.41-3.425 3.541-.417.387.208 1.012.625.625zM.268 43.863V69.01c0 .565.893.565.893 0V43.863c0-.565-.893-.565-.893 0z" transform="translate(606.719986, 449.480000)"/>
                            <path d="M.983 69.693h31.924c.566 0 .566-.892 0-.892H.983c-.596 0-.596.892 0 .892zM.983 44.31h30.971c.566 0 .566-.893 0-.893H.983c-.596 0-.596.893 0 .893z" transform="translate(606.719986, 449.480000)"/>
                            <path d="M31.954 43.863V69.01c0 .565.894.565.894 0V43.863c0-.565-.894-.565-.894 0zM16.885 43.12c-.03-.387.03-.745.209-1.102.09-.208.447-.744.655-.595.238.149.328.833.357 1.071.09.447.09.893.03 1.34-.06.565.834.565.894 0 .06-.774 0-1.548-.268-2.292-.18-.476-.417-1.041-.983-1.1-1.221-.15-1.847 1.725-1.787 2.648.03.625.923.625.893.03zM1.966 46.75v20.057c0 .565.893.565.893 0V46.75c0-.566-.893-.566-.893 0z" transform="translate(606.719986, 449.480000)"/>
                            <path d="M2.412 67.253h28.053c.566 0 .566-.893 0-.893H2.412c-.566 0-.566.893 0 .893z" transform="translate(606.719986, 449.480000)"/>
                            <path d="M31.18 66.569V46.512c0-.566-.893-.566-.893 0v20.057c0 .595.893.595.893 0z" transform="translate(606.719986, 449.480000)"/>
                            <path d="M2.65 47.434h27.1c.566 0 .566-.892 0-.892H2.65c-.565 0-.565.892 0 .892zM2.8 62.522c3.484-1.042 7.028-1.964 10.482-.357 2.472 1.16 4.616 2.916 7.386 3.422.565.089.804-.744.238-.863-3.157-.595-5.54-2.887-8.547-3.899-3.246-1.07-6.641-.119-9.798.834-.536.178-.298 1.041.238.863z" transform="translate(606.719986, 449.480000)"/>
                            <path d="M14.414 62.016c4.258-1.488 8.696-2.024 13.163-1.577.565.06.565-.834 0-.893-4.557-.447-9.083.09-13.402 1.607-.536.208-.297 1.071.239.863zM15.337 55.112c-.328-.566-.238-1.399.327-1.786.507-.357 1.31-.208 1.668.268.358.506.15 1.31-.417 1.607-.655.327-1.4-.297-1.4-.952 0-.566-.893-.566-.893 0-.03 1.19 1.191 2.202 2.383 1.875 1.101-.298 1.697-1.697 1.22-2.708-.476-1.072-1.905-1.458-2.918-.923-1.102.595-1.37 2.053-.774 3.095.327.476 1.072.03.804-.476zM160.397 48.178c1.072 1.429 1.28 3.363 2.59 4.613 1.222 1.19 2.681 1.012 4.17.476.536-.179.298-1.042-.238-.863-.804.268-1.727.565-2.561.238-.715-.298-1.191-.952-1.549-1.637-.566-1.1-.893-2.291-1.638-3.303-.357-.446-1.131 0-.774.476z" transform="translate(606.719986, 449.480000)"/>
                            <path d="M167.038 52.91c1.43-1.22 2.68-2.619 3.752-4.166.328-.476-.446-.923-.774-.447-1.013 1.488-2.234 2.827-3.603 3.988-.447.357.178 1.012.625.625zM164.864 47.85c.417.983.596 1.995.566 3.036-.03.566.863.566.893 0 .03-1.22-.208-2.38-.685-3.481-.208-.536-.982-.09-.774.446zM141.01 164.264v11.904c0 .565.893.565.893 0v-11.904c0-.565-.893-.565-.893 0zM130.14 177.804h31.567c.566 0 .566-.892 0-.892H130.14c-.566 0-.566.892 0 .892zM147.264 178.548v7.44c0 .565.893.565.893 0v-7.44c0-.565-.893-.565-.893 0z" transform="translate(606.719986, 449.480000)"/>
                            <path d="M129.842 187.327h27.994c.566 0 .566-.893 0-.893h-27.994c-.566 0-.566.893 0 .893zM136.84 188.07v5.655c0 .565.894.565.894 0v-5.654c0-.566-.893-.566-.893 0zM139.819 43.982c0-1.25-.239-2.827 0-4.047.327-1.726 2.74-1.398 4.14-1.488.565-.03.565-.922 0-.892-1.132.06-2.324.06-3.455.238-.507.089-.953.238-1.251.684-.357.536-.298 1.28-.298 1.905v3.6c-.03.596.864.596.864 0zM134.577 10.743c2.71-.744 5.42-.566 8.011.476.536.208.775-.655.239-.863-2.74-1.101-5.629-1.25-8.488-.476-.566.178-.327 1.041.238.863zM133.476 8.064c2.382-1.636 5.24-1.934 7.921-.863.536.209.774-.654.238-.863-2.859-1.16-6.075-.803-8.606.953-.477.327-.03 1.1.447.773zM123.797 23.658c-.953.654-2.77 1.517-3.038 2.767-.119.655.179 1.25.417 1.845.417 1.042.834 2.083 1.28 3.125 1.728 4.077 3.664 8.064 5.808 11.933.268.506 1.042.06.774-.447-1.638-2.975-3.156-6.01-4.556-9.106-.745-1.636-1.46-3.303-2.115-4.97-.387-.981-.923-1.844-.208-2.856.417-.595 1.489-1.101 2.114-1.518.447-.327 0-1.1-.476-.773z" transform="translate(606.719986, 449.480000)"/>
                        </g>
                    </g>
                </g>
                <g mask="url(#t4i1j0kgab)">
                    <g>
                        <g transform="translate(400.000404, 486.480000) translate(235.447651, 124.500914) rotate(-2.000000) translate(-235.447651, -124.500914) translate(136.947651, 4.000914)">
                            <path fill="#BDD2DE" d="M74.14 102.19s-18.905 22.685-21.89 30.048c0 0 7.881 38.349-1.583 52.726 0 0 14.717-8.15 33.622-35.413l-9.354 44.376 10.15 39.601 45.173 5.374h26.466l10.945-38.008s8.159-1.99 14.527-14.927c0 0 20.697-29.45 11.542-68.852 0 0-14.573-49.005-72.359-45.895 0 0-19.977-.074-47.239 30.97z"/>
                            <path fill="#E6E3F4" d="M131.52 101.053c3.401 1.497 25.055-24.183 25.055-24.183s-21.887-8.836-39.127-5.091c0 0 2.37 24.12 14.073 29.274z"/>
                            <path fill="#CD917F" d="M121.932 64.788l-.792 9.21s-.198 14.26 15.35 13.666c0 0 11.189-.2 12.872-14.36l-1.485-22.479-9.11-5.644-16.835 19.607z"/>
                            <path fill="#B18075" d="M121.38 71.22s13.288 3.523 20.754-7.126c0 0 4.87-5.323 5.9-10.88l-5.405-10.608-10.174 14.586-10.632 8.865-.444 5.163z"/>
                            <path fill="#CD917F" d="M112.59 11.333s-5.455 7.038-5.103 24.985l-4.575 5.454c-.827.987-.658 1.909.495 2.507 1.026.531 2.857 1.413 3.992 1.012-.362.128.27 4.75.316 5.112.409 3.394 1.164 6.855 2.733 9.916 1.278 2.494 3.321 4.612 5.956 5.65 2.26.89 4.437.653 6.78.453 2.622-.225 5.084-.954 7.388-2.246 6.043-3.388 9.937-9.623 12.458-15.894l3.87-2.639 3.872-8.974-5.456-13.196-11.789-12.14H112.59z"/>
                            <g transform="translate(100.756313, 0.960836)">
                                <mask id="dyz3r1mm8f" fill="#fff">
                                    <use xlink:href="#j4krpjqfre"/>
                                </mask>
                                <path fill="#000A12" d="M52.03 18.156S53.367 1.35 40.5.023c-.524-.054-1.085.004-1.61.005L23.707.07c-2.943.009-5.885.017-8.83.024-2.229.007-4.58-.195-6.796.003-2.79.25-5.6 2.929-7.007 5.22C.104 6.896-.24 8.752.17 10.566c.198.875.556 1.71 1.012 2.481.442.748 1.204 1.395 1.513 2.206.205.533-.036 1.198.119 1.783.074.282.169.56.308.819.31.58.785 1.027 1.397 1.278 2.435 1.002 5.649-.762 7.705-1.887.604-.329 1.196-.677 1.78-1.036 5.538-3.406 12.322-4.116 17.264.649 2.175 2.097 2.224 5.037 3.214 7.748.885 2.422 2.288 5.45 4.905 6.387.59.21 1.216.288 1.838.236 6.36-.527 7.146 10.983 3.044 12.531l-2.11 1.057c-1.047.524-2.727.824-1.796 2.198.62.916 1.25 1.823 1.876 2.734l5.069 7.39c.478.698.93 1.514 1.599 2.053.068.058.148.112.237.124.119.014.232-.05.33-.117 1.24-.858 1.058-2.283 1.108-3.602l.147-3.81.352-9.067.693-17.94c.085-2.202.08-4.428.256-6.625" mask="url(#dyz3r1mm8f)"/>
                            </g>
                            <path fill="#CD917F" d="M22.4 73.135S8.47 68.46 1.903 50.847c-6.567-17.611 5.97 2.643 5.97 2.643s4.577 10.392 12.737 9.397c0 0-3.384-4.623-3.981-5.695-.597-1.071-.995-5.648 2.785-2.265 3.783 3.384 11.94 8.557 11.94 8.557s8.558 6.766 9.354 12.934c.796 6.17 11.539 55.81 11.541 55.82.592 2.724.948 5.52 1.337 8.276.864 6.124 1.505 12.29 1.752 18.473.25 6.246.255 12.743-1.271 18.846-.993 3.969-3.082 8.89-7.737 9.391-2.029.22-3.569.132-5.532-.245-1.87-.362-3.477-1.362-5.055-2.383-3.444-2.23-5.57-5.822-6.466-9.777-.257-1.142-.433-2.31-.51-3.477L22.4 73.135"/>
                            <g transform="translate(74.920005, 176.818931)">
                                <mask id="r7yftzo3fh" fill="#fff">
                                    <use xlink:href="#mq5i6bsasg"/>
                                </mask>
                                <path fill="#91A3B2" d="M3.416.979s73.991 32.416 83.127 44.649l-4.739 16.455-49.66 1.278L.017 17.109l3.4-16.13z" mask="url(#r7yftzo3fh)"/>
                            </g>
                            <path fill="url(#li9o5xtxji)" d="M93.037 133.94l6.129 38.71s20.104-24.513 24.4-39.607c0 0 8.629-18.235 27.908-12.405 0 0 21.523 3.886 15.396 28.397 0 0-16.292 40.054-23.017 43.193l-14.415 9.827-51.102-24.257 5.953-28.247 8.748-15.612z"/>
                            <circle cx="131.57" cy="109.501" r="1.5" fill="#69788C"/>
                            <circle cx="131.57" cy="109.501" r="1.5" fill="#69788C"/>
                            <circle cx="130.047" cy="124.457" r="1.5" fill="#69788C"/>
                            <circle cx="128.489" cy="140.413" r="1.5" fill="#69788C"/>
                            <circle cx="125.967" cy="155.334" r="1.5" fill="#69788C"/>
                            <circle cx="122.445" cy="170.22" r="1.5" fill="#69788C"/>
                            <path fill="#BF877A" d="M24.05 98.583c1.882 6.266 3.878 12.503 6.002 18.692.985 2.868 1.997 5.727 3.11 8.547 1.156 2.929 2.7 5.6 3.701 8.593.78 2.33.626 5.04.5 7.476-.118 2.261-.35 4.517-.678 6.759-.276 1.883-.45 4.315-1.185 6.062-.614 1.46-1.355 2.93-2.021 4.376-.714 1.545-1.483 3.088-2.442 4.496-.168.247-2.603 2.618-2.613 2.469l-4.374-67.47"/>
                            <path fill="#A7BFCB" d="M106.009 76.015s-28.9 53.566-51.354 67.925l-2.406-11.702s24.547-40.869 53.76-56.223"/>
                            <path fill="#B0C6D3" d="M162.542 79.792s4.874 35.642 32.176 42.13c0 0-3.048-24.6-32.176-42.13"/>
                            <path fill="#020101" d="M119.487 28.957c-.272.918-.887 1.635-1.865.955-1.883-1.31-3.71-2.724-5.402-4.266-.786-.715-.04-1.436.703-1.74.813-.331 6.534 4.08 6.564 5.05M120.407 49.449c-1.119 3.324-4.515 5.43-8.338 5.094 3.086-1.2 5.685-3.192 8.338-5.094M115.073 34.82c.01 1.013-.41 1.566-1.313 1.636-.89.069-1.468-.381-1.54-1.279-.075-.896.431-1.434 1.311-1.523.911-.094 1.386.423 1.542 1.165"/>
                            <path fill="url(#7vz2ywsjbj)" d="M126.534 85.968L129.14 93.942 120.759 131.499 119.14 143.145 125.834 153.968 134.597 145.311 132.795 94.067 138.14 87.129 132.735 87.725z"/>
                        </g>
                        <g>
                            <path fill="#658BFF" fill-rule="nonzero" stroke="#E8E8E8" stroke-width="1.68" d="M328.812 99.774C219.635 85.224 110.427 70.673 1.25 56.152 33.467 37.504 65.715 18.856 97.933.208c98.498 9.68 197.025 19.39 295.523 29.07-21.568 23.49-43.106 47.007-64.644 70.496z" transform="translate(400.000404, 486.480000) translate(0.799596, 175.719984)"/>
                            <path stroke="#0D34AC" stroke-width="8.96" d="M.178 58.676C109.624 73.167 219.07 87.658 328.485 102.15M326.403 102.802c22.936-24.2 45.872-48.431 68.778-72.632" transform="translate(400.000404, 486.480000) translate(0.799596, 175.719984)"/>
                            <g fill="#161616" fill-rule="nonzero">
                                <path d="M32.962.24C21.807 8.94 10.89 17.91.15 27.114c-.447.386.208 1.01.624.624C11.514 18.532 22.461 9.564 33.587.864c.446-.327-.178-.98-.625-.624z" transform="translate(400.000404, 486.480000) translate(0.799596, 175.719984) translate(261.908737, 44.956372)"/>
                                <path d="M.566 27.59c3.51.741 7.08.741 10.68.771 4.046.06 7.854.475 11.72 1.604 7.26 2.108 14.37 3.504 21.955 3.325.566 0 .566-.89 0-.89-3.897.089-7.794-.149-11.661-.772-3.63-.594-7.08-1.663-10.62-2.643-3.392-.95-6.783-1.396-10.323-1.455-3.868-.09-7.735.03-11.543-.772-.535-.149-.773.712-.208.831zM33.617.894c11.78.95 23.472 2.82 34.955 5.612.565.148.803-.713.238-.861C57.267 2.824 45.487.953 33.617.003c-.565-.06-.565.831 0 .89z" transform="translate(400.000404, 486.480000) translate(0.799596, 175.719984) translate(261.908737, 44.956372)"/>
                                <path d="M45.606 32.756c8.3-8.196 16.272-16.748 23.828-25.656.357-.446-.267-1.07-.624-.624-7.557 8.879-15.53 17.43-23.83 25.656-.416.416.21 1.04.626.624zM10.948 24.055c10.234-1.247 20.586.03 30.195 3.772.536.207.774-.654.238-.862-9.668-3.741-20.14-5.048-30.433-3.8-.565.059-.565.95 0 .89zM26.447 20.789c6.307.475 12.525 1.455 18.683 2.91.565.149.803-.713.238-.861-6.218-1.485-12.525-2.465-18.92-2.94-.596-.03-.566.861 0 .891zM21.717 14.227c9.49.207 18.89 1.573 28.053 4.097.566.149.804-.712.238-.86-9.222-2.525-18.712-3.92-28.29-4.128-.566 0-.566.89 0 .89zM33.498 11.495c5.117.712 10.174 1.603 15.231 2.672.565.119.803-.742.238-.861-5.057-1.069-10.114-1.96-15.231-2.673-.565-.089-.803.773-.238.862zM26.983 31.42c-1.815 2.79-3.63 5.582-5.474 8.344-.178.267.06.712.387.683 14.666-1.663 29.54-.713 43.88 2.791.564.149.802-.713.237-.861-14.428-3.534-29.362-4.484-44.117-2.85.119.237.268.445.387.682 1.814-2.791 3.629-5.582 5.473-8.344.328-.475-.446-.92-.773-.445z" transform="translate(400.000404, 486.480000) translate(0.799596, 175.719984) translate(261.908737, 44.956372)"/>
                                <path d="M62.95 14.553l17.194-.356c-.149-.178-.298-.386-.417-.564-3.956 9.413-7.943 18.796-11.9 28.21-.207.534.655.771.864.237 3.956-9.413 7.942-18.797 11.899-28.21.119-.267-.178-.564-.416-.564l-17.195.356c-.595.03-.595.92-.03.891zM41.203 36.676c1.517-.297 3.034-.357 4.581-.238.565.03.565-.861 0-.89-1.636-.12-3.213-.03-4.82.266-.564.09-.326.95.239.862zM49.651 36.765c4.671.178 9.342.623 13.982 1.336.566.089.804-.772.238-.861-4.7-.743-9.46-1.188-14.22-1.366-.565-.03-.565.861 0 .89zM49.92 31.182h3.331c.565 0 .565-.89 0-.89h-3.332c-.565 0-.565.89 0 .89z" transform="translate(400.000404, 486.480000) translate(0.799596, 175.719984) translate(261.908737, 44.956372)"/>
                                <path d="M56.85 31.093c3.66.09 7.289.445 10.918 1.04.566.088.804-.773.238-.862-3.688-.594-7.407-.95-11.155-1.069-.566 0-.566.891 0 .891zM56.285 26.015c4.165.06 8.3.297 12.435.772.566.06.566-.831 0-.89-4.135-.476-8.27-.743-12.435-.773-.565-.03-.565.862 0 .891zM28.351 35.874c1.994.06 3.957-.178 5.92-.653.566-.149.328-1.01-.238-.862-1.874.476-3.748.683-5.682.624-.565 0-.565.89 0 .89z" transform="translate(400.000404, 486.480000) translate(0.799596, 175.719984) translate(261.908737, 44.956372)"/>
                            </g>
                            <g>
                                <path fill="#2D2830" d="M21.444.822L13.93 4.848 2.71 10.86c-.954.512-3.088 1.236-2.652 2.745.23.795.934 1.046 1.612 1.336l2.56 1.097 2.669 1.144c.805.345 1.684.93 2.556.97.228.01.46.014.681-.045.229-.062.433-.188.634-.313 1.016-.631 1.923-1.324 2.981-1.91l3.087-1.708 6.969-3.854 9.164-5.069.047-.026S34.4 3.931 32.5 3.24L23.517.822s-1.16-.49-2.073 0" transform="translate(400.000404, 486.480000) translate(0.799596, 175.719984) translate(263.000000, 43.000000)"/>
                                <g transform="translate(400.000404, 486.480000) translate(0.799596, 175.719984) translate(263.000000, 43.000000) translate(0.000000, 0.157620)">
                                    <mask id="ujcfovitrl" fill="#fff">
                                        <use xlink:href="#cquk3vux9k"/>
                                    </mask>
                                    <path fill="#1A223B" d="M.973 11.626s-1.571.9 0 1.412c1.571.511 8.422 3.63 8.422 3.63s.665.562 1.432 0L32.964 4.09s.708-.379-.464-1.007L23.044.523s-.863-.254-1.6.14L.973 11.627z" mask="url(#ujcfovitrl)"/>
                                </g>
                                <path fill="#EEEFE2" d="M2.289 12.07L10.264 15.496 29.437 5.066 20.234 2.612zM27.801 2.766c0 .31-.607.562-1.355.562s-1.355-.251-1.355-.562c0-.311.607-.562 1.355-.562s1.355.251 1.355.562" transform="translate(400.000404, 486.480000) translate(0.799596, 175.719984) translate(263.000000, 43.000000)"/>
                            </g>
                            <path fill="#161616" fill-rule="nonzero" d="M299.39 28.299c-.773.95-1.665 2.88-.743 4.038.565.713 1.636.565 2.44.594 1.457.06 2.915.149 4.372.208 5.92.267 11.81.564 17.73.832.566.03.566-.862 0-.891l-13.089-.624c-2.142-.089-4.254-.208-6.396-.297-1.04-.06-2.142 0-3.183-.148-.773-.12-1.339-.149-1.309-1.099.03-.742.357-1.425.803-1.99.357-.445-.267-1.098-.624-.623z" transform="translate(400.000404, 486.480000) translate(0.799596, 175.719984)"/>
                            <path fill="#161616" fill-rule="nonzero" d="M300.194 29.427c4.998.178 9.995.327 14.993.505 2.44.09 4.909.149 7.348.238 2.202.089 4.522.237 6.099 1.93.386.416 1.011-.208.624-.624-1.19-1.306-2.796-1.811-4.521-2.049-2.559-.326-5.206-.267-7.795-.356-5.592-.178-11.185-.386-16.748-.564-.565.03-.565.92 0 .92z" transform="translate(400.000404, 486.480000) translate(0.799596, 175.719984)"/>
                            <path fill="#161616" fill-rule="nonzero" d="M322.892 34c2.29.03 4.462-.683 6.307-2.049.446-.326 0-1.098-.446-.772-1.726 1.277-3.69 1.96-5.86 1.93-.596 0-.596.891 0 .891z" transform="translate(400.000404, 486.480000) translate(0.799596, 175.719984)"/>
                            <path fill="#161616" fill-rule="nonzero" d="M323.606 29.427c-1.25.832-1.815 2.376-1.398 3.801.149.535 1.011.327.863-.237-.298-1.04.06-2.198.981-2.821.476-.297.03-1.07-.446-.743z" transform="translate(400.000404, 486.480000) translate(0.799596, 175.719984)"/>
                        </g>
                        <g>
                            <path fill="#FFF" fill-rule="nonzero" stroke="#161616" stroke-width="1.68" d="M124.583 97.117l-108.508-18.6c21.97-8.884 43.939-17.737 65.908-26.62 34.354 7.66 68.707 15.322 103.03 22.983-20.123 7.422-40.277 14.815-60.43 22.237z" transform="translate(400.000404, 486.480000) translate(78.079590, 138.759987)"/>
                            <path fill="#161616" fill-rule="nonzero" d="M123.094 97.564c.12.358.209.745.328 1.103.149.477.863.388.863-.12v-.864c0-.566-.893-.566-.893 0 0 .358-.06.686-.208 1.014h.863c-.12-.388-.149-.745-.06-1.163-.268.03-.535.06-.803.12.089.089.089.149.03.238.267.03.535.06.803.12-.06-.21-.03-.388.09-.567-.268-.09-.566-.15-.834-.239-.06.477-.12.925-.179 1.401-.03.239.238.448.447.448.268 0 .417-.21.446-.448.06-.476.12-.924.179-1.4.06-.448-.625-.567-.834-.239-.238.387-.297.835-.178 1.282.09.387.625.417.804.119.238-.358.238-.805-.03-1.133-.209-.268-.744-.298-.804.12-.119.536-.09 1.102.06 1.639.148.447.714.387.863 0 .149-.417.238-.835.238-1.252h-.893v.864c.298-.03.595-.089.863-.119-.119-.357-.208-.745-.327-1.103-.12-.626-.983-.387-.834.18z" transform="translate(400.000404, 486.480000) translate(78.079590, 138.759987)"/>
                            <path fill="#161616" fill-rule="nonzero" d="M123.779 99.71c4.793-2.474 10.032-3.785 15.182-5.246 2.53-.715 5.031-1.49 7.442-2.504 2.322-.954 4.555-2.146 6.847-3.22 5.09-2.384 10.598-3.934 15.927-5.693 5.537-1.848 11.044-3.696 16.58-5.514.537-.18.298-1.044-.237-.865-5.537 1.848-11.045 3.696-16.582 5.515-5.239 1.729-10.627 3.279-15.658 5.574-2.62 1.192-5.18 2.593-7.86 3.637-2.44.954-4.94 1.699-7.471 2.414-4.971 1.431-10.002 2.743-14.646 5.127-.477.269-.03 1.044.476.775z" transform="translate(400.000404, 486.480000) translate(78.079590, 138.759987)"/>
                            <path fill="#161616" fill-rule="nonzero" d="M124.196 99.532c20.57-7.125 41.08-14.338 61.592-21.671 1.607-.567.922-3.16-.715-2.594-20.48 7.333-41.021 14.547-61.592 21.671-1.607.567-.923 3.16.715 2.594zM121.874 70.736c3.87.388 7.174 2.743 10.984 3.488.566.12.804-.745.239-.865-3.87-.775-7.234-3.13-11.223-3.517-.566-.03-.566.864 0 .894z" transform="translate(400.000404, 486.480000) translate(78.079590, 138.759987)"/>
                            <path fill="#161616" fill-rule="nonzero" d="M133.126 73.807c2.352-1.282 4.555-2.802 6.55-4.591.416-.388-.209-1.014-.626-.626-1.964 1.729-4.078 3.22-6.37 4.442-.506.298-.06 1.073.446.775zM122.797 69.037c1.875-1.341 3.81-2.623 5.805-3.815.506-.298.03-1.073-.447-.775-1.995 1.192-3.93 2.444-5.805 3.815-.476.358-.03 1.133.447.775z" transform="translate(400.000404, 486.480000) translate(78.079590, 138.759987)"/>
                            <path fill="#161616" fill-rule="nonzero" d="M128.75 65.37c3.394 1.282 6.788 2.534 10.211 3.816.536.209.774-.656.238-.864-3.393-1.282-6.787-2.534-10.21-3.816-.536-.179-.774.686-.239.865zM119.195 74.134c8.96 2.773 17.801 5.962 26.464 9.57.536.208.774-.657.238-.865-8.662-3.607-17.504-6.797-26.464-9.569-.566-.179-.804.686-.238.864zM120.058 81.08c5.567 2.683 11.193 5.216 16.879 7.69.536.239.982-.536.446-.774-5.686-2.445-11.312-5.008-16.879-7.691-.506-.239-.952.536-.446.775zM120.862 88.74c3.036 1.55 6.072 3.13 9.109 4.68.506.269.953-.506.446-.774-3.036-1.55-6.072-3.13-9.109-4.68-.506-.269-.952.506-.446.775z" transform="translate(400.000404, 486.480000) translate(78.079590, 138.759987)"/>
                            <path fill="#161616" fill-rule="nonzero" d="M122.588 89.009c4.198-3.577 8.603-6.856 13.188-9.896.476-.328.03-1.103-.447-.776-4.644 3.07-9.109 6.44-13.366 10.046-.446.388.179 1.014.625.626zM121.487 82.898c2.381-1.67 4.763-3.338 7.144-5.037.477-.328.03-1.103-.446-.775-2.382 1.669-4.763 3.338-7.145 5.037-.446.328 0 1.103.447.775z" transform="translate(400.000404, 486.480000) translate(78.079590, 138.759987)"/>
                            <g>
                                <path fill="#CD917F" d="M111.599 2.972c3.865-1.284 7.983-2.097 12.016-2.583 5.136-.619 12.728-1.143 16.017 3.8.575.866.662 1.86 1.1 2.801.812 1.743.721 4.665.472 6.657-.287 2.275-1.138 4.45-2.522 6.28-3.626 4.796-9.8 6.462-15.444 7.398l-68.043 11.28s-13.61 2.509-16.295 4.299c-2.685 1.79-10.923 5.91-14.145 3.044 0 0-6.985-5.193-8.059-7.7 0 0-4.297-.18-12.713 10.206 0 0-6.501 5.371-2.892-1.252 0 0 12.024-18.802 29.214-19.697 2.715-.113 5.454-.354 8.175-.736 3.165-.443 6.306-1.078 9.35-1.92 2.76-.765 5.418-1.842 8.045-2.97 1-.43 1.932-.673 2.859-1.223.572-.336 1.199-.517 1.826-.724l7.423-2.467 19.79-6.577 17.84-5.926 5.986-1.99" transform="translate(400.000404, 486.480000) translate(78.079590, 138.759987) translate(105.000000, 28.000000)"/>
                                <path fill="#2D2830" d="M48.482 32.692s-5.876-5.94-6.918-6.418l-3.083.496S48.407 37.89 49.016 39.87l4.123-.866-4.657-6.311z" transform="translate(400.000404, 486.480000) translate(78.079590, 138.759987) translate(105.000000, 28.000000)"/>
                                <path fill="#503938" d="M49.016 39.868s-3.35-5.511-5.313-7.074l3.348-1.531 6.089 7.74-4.124.865z" transform="translate(400.000404, 486.480000) translate(78.079590, 138.759987) translate(105.000000, 28.000000)"/>
                                <path fill="#BF877A" d="M64.966 18.47s17.049 4.179 30.422-1.002c13.371-5.183 14.632-13.971 14.632-13.971L64.966 18.47z" transform="translate(400.000404, 486.480000) translate(78.079590, 138.759987) translate(105.000000, 28.000000)"/>
                            </g>
                            <path fill="#FFF" fill-rule="nonzero" stroke="#161616" stroke-width="1.68" d="M122.975 99.174L10.717 80.037C7.204 53.417 3.662 26.827.149.209c40.277 5.425 80.525 10.85 120.802 16.305.685 27.543 1.37 55.087 2.024 82.66z" transform="translate(400.000404, 486.480000) translate(78.079590, 138.759987)"/>
                            <path fill="#161616" fill-rule="nonzero" d="M56.293 53.12c-3.245-1.014-5.001-3.757-5.27-7.065-.267-3.369.388-6.618 3.514-8.377 2.768-1.55 6.072-1.103 8.543.775 2.471 1.878 4.674 5.724 2.68 8.675-.328.477.446.924.773.447 2.144-3.16.12-7.333-2.5-9.51-2.71-2.235-6.37-2.92-9.556-1.34-3.691 1.818-4.644 5.514-4.346 9.36.297 3.725 2.262 6.796 5.924 7.929.536.149.774-.716.238-.895z" transform="translate(400.000404, 486.480000) translate(78.079590, 138.759987)"/>
                            <path fill="#161616" fill-rule="nonzero" d="M57.126 53.447c-1.369-2.265-.922-5.425 1.28-7.005 2.203-1.58 5.359-.924 7.026 1.103.357.447.982-.179.625-.626-1.965-2.355-5.656-3.01-8.216-1.192-2.56 1.848-3.096 5.544-1.489 8.167.298.477 1.072.03.774-.447z" transform="translate(400.000404, 486.480000) translate(78.079590, 138.759987)"/>
                            <path fill="#161616" fill-rule="nonzero" d="M60.193 54.7c-1.4-1.491-1.191-4.264.684-5.337 1.846-1.073 4.347.15 4.942 2.117.179.536 1.042.328.863-.239-.774-2.504-3.9-3.994-6.251-2.623-2.352 1.371-2.65 4.83-.863 6.737.387.387 1.012-.239.625-.656z" transform="translate(400.000404, 486.480000) translate(78.079590, 138.759987)"/>
                            <path fill="#161616" fill-rule="nonzero" d="M62.485 56.786c1.16.417 2.5-.269 2.947-1.371.476-1.103-.149-2.296-1.19-2.773-1.043-.477-2.293-.208-2.859.805-.535.984-.357 2.325.536 3.04.447.358 1.072-.268.625-.625-1.19-.924-.357-3.1 1.22-2.445.686.269 1.162.984.834 1.73-.327.715-1.16 1.072-1.875.804-.536-.209-.774.656-.238.835z" transform="translate(400.000404, 486.480000) translate(78.079590, 138.759987)"/>
                            <path stroke="#161616" stroke-width="1.68" d="M120.951 16.484L123.571 98.607M121.13 16.425l2.41 81.02" transform="translate(400.000404, 486.480000) translate(78.079590, 138.759987)"/>
                            <path fill="#3D3D3D" fill-rule="nonzero" d="M69.6 10.94c1.935 1.013 18.546 10.075 19.707 26.172.655 8.883-3.692 15.62-6.43 19.733-14.766 22.238-43.97 26.172-51.888 27.007 11.521 7.661 51.768 32.909 95.767 31.419 9.794-.328 24.976-1.014 41.438-10.076 12.354-6.796 20.362-15.53 24.946-21.343-2.828-1.759-5.626-3.488-8.454-5.246-20.779 7.124-41.587 14.248-62.366 21.343-1.071-27.543-2.143-55.057-3.215-82.6-16.521-2.087-33.013-4.233-49.505-6.41z" opacity=".37" transform="translate(400.000404, 486.480000) translate(78.079590, 138.759987)"/>
                            <path fill="#3D3D3D" fill-rule="nonzero" d="M45.933 85.79c3.87 2.563 9.854 6.23 17.594 9.747 9.645 4.412 38.193 17.468 69.123 10.225 22.476-5.277 39.86-19.734 38.73-22.119-.715-1.49-9.437.06-48.286 15.53-.625-12.608-1.25-25.247-1.845-37.856-1.072 10.612-2.174 21.224-3.245 31.806-24.024-2.415-48.047-4.889-72.07-7.333z" opacity=".5" transform="translate(400.000404, 486.480000) translate(78.079590, 138.759987)"/>
                        </g>
                        <g fill="#1A223B">
                            <g>
                                <path d="M1.153.802s-1.55 21.659 3.973 25.641l12.16.898s5.659-7.694 5.425-22.282c-.013-.838-.046-1.696-.102-2.574L1.153.802z" transform="translate(400.000404, 486.480000) translate(340.999596, 190.520000) translate(0.000000, 0.054864)"/>
                                <path d="M5.126 26.443c6.837 1.95 10.917 2.196 12.242.742 1.325-1.454 1.733-3.35 1.224-5.689L5.126 26.443z" transform="translate(400.000404, 486.480000) translate(340.999596, 190.520000) translate(0.000000, 0.054864)"/>
                            </g>
                            <path d="M27.062 12.65s-1.389 6.213-6.872 6.528l-.496 1.739s7.164.158 8.95-7.909c0 0 1.154-6.485-6.928-6.485l-.007 1.38s6.068.561 5.353 4.748" transform="translate(400.000404, 486.480000) translate(340.999596, 190.520000)"/>
                        </g>
                        <g filter="url(#e828oc8m1m)" opacity=".7" transform="translate(400.000404, 486.480000)">
                            <g>
                                <path fill="#5222D0" fill-rule="nonzero" d="M2.431 14.414C.267 12-.445 8.624.623 5.669 1.72 2.684 4.625.12 8.093.24c3.054.12 5.515 2.292 6.404 4.342.653 1.568.504 3.016.504 3.016-.089.814-.355 1.447-.563 1.84-1.512-1.78-3.824-2.594-5.989-2.081-2.668.633-3.824 2.955-3.943 3.166-1.215 2.533-.148 4.885 0 5.156-.711-.452-1.393-.874-2.075-1.266z" transform="translate(129.599586, 176.279984)"/>
                            </g>
                        </g>
                    </g>
                </g>
                <path stroke="url(#xg2d2wtjtn)" stroke-linecap="round" d="M257.525 573.095c27.79 18.163 61.694 26.533 101.715 25.112 60.03-2.131 69.053 10.658 16.216 26.952-19.368 5.973-56.242 14.258-61.909 18.178-26.388 18.258 39.656 12.958 56.246 13.4 57.137-2.331 94.56-2.331 112.267 0" mask="url(#t4i1j0kgab)"/>
                <path stroke="#00DBC9" stroke-linecap="round" d="M258.575 573.145c-.323 3.176-.323 5.509 0 7" mask="url(#t4i1j0kgab)" transform="translate(258.454276, 576.644747) rotate(-15.000000) translate(-258.454276, -576.644747)"/>
                <path stroke="#00DBC9" stroke-linecap="round" d="M261.663 569.212c-.323 3.176-.323 5.509 0 7" mask="url(#t4i1j0kgab)" transform="translate(261.541522, 572.711694) scale(-1, 1) rotate(89.000000) translate(-261.541522, -572.711694)"/>
            </g>
        </g>
    </g>
</svg>
