<svg xmlns="http://www.w3.org/2000/svg" width="24" height="20" viewBox="0 0 24 20">
    <defs>
        <filter id="nv54m6wwaa">
            <feColorMatrix in="SourceGraphic" values="0 0 0 0 0.078431 0 0 0 0 0.113725 0 0 0 0 0.227451 0 0 0 1.000000 0"/>
        </filter>
    </defs>
    <g fill="none" fill-rule="evenodd">
        <g>
            <g filter="url(#nv54m6wwaa)" transform="translate(-19.000000, -244.000000) translate(20.000000, 245.000000)">
                <path stroke="#1D1D1B" stroke-width="1.96" d="M18.424 17.645H3.069C1.38 17.645 0 16.264 0 14.576V3.068C0 1.38 1.381 0 3.07 0h15.355c1.687 0 3.068 1.38 3.068 3.068v11.508c0 1.688-1.38 3.069-3.068 3.069z"/>
                <path fill="#1D1D1B" d="M15.801 7.818h-5.756c-.657 0-1.194-.537-1.194-1.194 0-.657.537-1.194 1.194-1.194h5.756c.657 0 1.195.537 1.195 1.194 0 .657-.538 1.194-1.195 1.194M6.25 7.818h-.896c-.657 0-1.194-.537-1.194-1.194 0-.657.537-1.194 1.194-1.194h.896c.656 0 1.193.537 1.193 1.194 0 .657-.537 1.194-1.193 1.194M6.25 12.338h-.896c-.657 0-1.194-.537-1.194-1.194 0-.657.537-1.194 1.194-1.194h.896c.656 0 1.193.537 1.193 1.194 0 .657-.537 1.194-1.193 1.194M15.801 12.338h-5.756c-.657 0-1.194-.537-1.194-1.194 0-.657.537-1.194 1.194-1.194h5.756c.657 0 1.195.537 1.195 1.194 0 .657-.538 1.194-1.195 1.194"/>
            </g>
        </g>
    </g>
</svg>
