<svg xmlns="http://www.w3.org/2000/svg" width="16" height="14" viewBox="0 0 16 14">
    <defs>
        <filter id="mo7m7b72da">
            <feColorMatrix in="SourceGraphic" values="0 0 0 0 1.000000 0 0 0 0 1.000000 0 0 0 0 1.000000 0 0 0 1.000000 0"/>
        </filter>
    </defs>
    <g fill="none" fill-rule="evenodd">
        <g>
            <g>
                <g filter="url(#mo7m7b72da)" transform="translate(-1269.000000, -20.000000) translate(14.000000, 12.000000) translate(1235.000000, 0.000000)">
                    <g fill="#000" fill-rule="nonzero">
                        <path d="M7.614 3.042c-.381-.221-.838-.222-1.22-.001-.384.22-.613.617-.613 1.06v3.114c0 .443.23.84.613 1.06.19.11.4.165.608.165.21 0 .42-.055.612-.166l2.683-1.557c.382-.221.61-.617.61-1.059 0-.442-.228-.837-.61-1.059L7.614 3.042zm-.583 4.125V4.149l2.6 1.51-2.6 1.508z" transform="translate(20.000000, 8.000000)"/>
                        <path d="M15.375 6.252c.345 0 .625-.28.625-.625V2.502c0-1.379-1.121-2.5-2.5-2.5h-11C1.121.002 0 1.123 0 2.502v6.25c0 1.378 1.121 2.5 2.5 2.5h4.875v1.246H5.187c-.345 0-.625.28-.625.625s.28.625.625.625h5.625c.346 0 .626-.28.626-.625s-.28-.625-.626-.625H8.626v-1.246H13.5c1.379 0 2.5-1.122 2.5-2.5 0-.345-.28-.625-.625-.625s-.625.28-.625.625c0 .69-.56 1.25-1.25 1.25h-11c-.69 0-1.25-.56-1.25-1.25v-6.25c0-.69.56-1.25 1.25-1.25h11c.69 0 1.25.56 1.25 1.25v3.125c0 .345.28.625.625.625z" transform="translate(20.000000, 8.000000)"/>
                    </g>
                </g>
            </g>
        </g>
    </g>
</svg>
