<svg xmlns="http://www.w3.org/2000/svg" width="23" height="19" viewBox="0 0 23 19">
    <defs>
        <filter id="68s58zs9ha">
            <feColorMatrix in="SourceGraphic" values="0 0 0 0 0.078431 0 0 0 0 0.113725 0 0 0 0 0.227451 0 0 0 1.000000 0"/>
        </filter>
    </defs>
    <g fill="none" fill-rule="evenodd">
        <g>
            <g filter="url(#68s58zs9ha)" transform="translate(-19.000000, -103.000000) translate(20.000000, 104.000000)">
                <path fill="#1D1D1B" d="M16.756 6.372h-4.264c-.605 0-1.099-.494-1.099-1.098 0-.604.494-1.099 1.099-1.099h4.264c.604 0 1.098.495 1.098 1.1 0 .603-.494 1.097-1.098 1.097M20.391 2.943h-7.9c-.603 0-1.098-.494-1.098-1.098 0-.604.495-1.099 1.099-1.099h7.9c.603 0 1.097.495 1.097 1.1 0 .603-.494 1.097-1.098 1.097M16.756 16.016h-4.264c-.605 0-1.099-.494-1.099-1.098 0-.604.494-1.099 1.099-1.099h4.264c.604 0 1.098.495 1.098 1.1 0 .603-.494 1.097-1.098 1.097M20.391 12.587h-7.9c-.603 0-1.098-.494-1.098-1.098 0-.604.495-1.099 1.099-1.099h7.9c.603 0 1.097.495 1.097 1.1 0 .603-.494 1.097-1.098 1.097"/>
                <path stroke="#1D1D1B" stroke-width="1.96" d="M6.72 6.706h-4.9C.818 6.706 0 5.886 0 4.886V1.82C0 .82.819 0 1.82 0h4.9c1 0 1.82.82 1.82 1.82v3.066c0 1-.82 1.82-1.82 1.82zM6.72 16.556h-4.9c-1.001 0-1.82-.82-1.82-1.82V11.67c0-1 .819-1.819 1.82-1.819h4.9c1 0 1.82.819 1.82 1.82v3.065c0 1-.82 1.82-1.82 1.82z"/>
            </g>
        </g>
    </g>
</svg>
